<svg xmlns="http://www.w3.org/2000/svg" width="100" height="19" fill="none" viewBox="0 0 100 19"><path fill="#E60000" d="M99.432 18.523h-3.82V17.21l-.12-.06c-.896.776-2.18 1.791-4.568 1.791-4.09 0-6.239-3.045-6.239-7.88V3.597h3.822v6.746c0 3.522 1.283 4.896 3.552 4.896s3.552-1.374 3.552-4.896V3.598h3.821zM76.51 4.97c.956-.865 2.747-1.372 4.478-1.372h1.91v3.76h-2c-2.984 0-4.507 1.732-4.507 5.076v6.09h-3.82V3.597h3.82V4.91zM65.559 14.194h4.388v4.329h-4.388zM56.46 18.941c-4.567 0-8.06-3.373-8.06-7.88 0-4.508 3.493-7.881 8.06-7.881s8.06 3.373 8.06 7.88c0 4.508-3.493 7.881-8.06 7.881m-4.209-7.88c0 2.208 1.791 4.208 4.21 4.208 2.417 0 4.208-2 4.208-4.209s-1.79-4.209-4.209-4.209-4.209 2-4.209 4.21M46.916 14.792v3.731h-3.642c-4.06 0-6.747-2.806-6.747-6.776V.553h3.821v3.045h6.568v3.671h-6.568v3.314c0 2.836 1.433 4.209 4.269 4.209zM33.702 18.523H29.88V17.21l-.12-.06c-.895.776-2.179 1.791-4.567 1.791-4.09 0-6.239-3.045-6.239-7.88V3.597h3.821v6.746c0 3.522 1.284 4.896 3.552 4.896 2.269 0 3.553-1.374 3.553-4.896V3.598h3.82zM3.94 11.06c0 2.21 1.821 4.27 4.21 4.27 2.387 0 4.208-2.06 4.208-4.27s-1.82-4.268-4.209-4.268S3.94 8.852 3.94 11.06m12.18-7.462v14.925h-3.762V17.21l-.119-.06c-.896.806-2.328 1.791-4.806 1.791C3.075 18.941 0 15.45 0 11.061 0 6.671 3.075 3.18 7.433 3.18c2.478 0 3.91.985 4.806 1.79l.12-.059V3.598z"></path></svg>
